<svg id="Layer_1" data-name="Layer 1" xmlns="http://www.w3.org/2000/svg" viewBox="0 0 115 133.44"><defs><style>.cls-1{fill:none;}.cls-2{fill:#757575;}</style></defs><title>SadPunkFace</title><line class="cls-1" y1="133.44" x2="115" y2="133.44"/><path class="cls-2" d="M420.08,327.68a3.24,3.24,0,0,0-3.37,2.35,19.82,19.82,0,0,0,0,7.38,3.57,3.57,0,0,0,6.71,0,19.82,19.82,0,0,0,0-7.38A3.23,3.23,0,0,0,420.08,327.68Z" transform="translate(-374 -213.56)"/><path class="cls-2" d="M442,333.22V333A0.27,0.27,0,0,0,442,333.22Z" transform="translate(-374 -213.56)"/><path class="cls-2" d="M448.66,330.5c0-1.73-1.1-2.5-3.08-2.5H442v5a0,0,0,0,1,0,0h3.55C447.55,333,448.66,332.25,448.66,330.5Z" transform="translate(-374 -213.56)"/><circle class="cls-2" cx="44.93" cy="56.24" r="5.04"/><circle class="cls-2" cx="71.29" cy="56.24" r="5.04"/><path class="cls-2" d="M432.14,285.54A11.33,11.33,0,0,0,421.82,293h0.89c1.87-3,5.54-4.69,9.58-4.69s7.4,1.69,9.27,4.69h0.89A11.33,11.33,0,0,0,432.14,285.54Z" transform="translate(-374 -213.56)"/><path class="cls-2" d="M401.6,274.84l0.1,0c1.26,16.84,16,38.58,30.55,38.58,6.91,0,14.46-5.24,20.72-14.39a55.43,55.43,0,0,0,8.63-20.2,1.89,1.89,0,0,0,1.51.85c1.23,0,2.19-1.38,2.19-3.13a3.16,3.16,0,0,0-1.52-3,8.18,8.18,0,0,0,.77-3.66c0-2.73-1-4.94-2.31-4.94a1.33,1.33,0,0,0-.87.37,30.43,30.43,0,0,0-15-19.44l-14.23-32.33-14.1,32a30.43,30.43,0,0,0-15.57,19.74,1.33,1.33,0,0,0-.87-0.37c-1.27,0-2.31,2.21-2.31,4.94S400.33,274.84,401.6,274.84Zm60.53,0,0.1,0a1.57,1.57,0,0,0,1.18-.72,2.52,2.52,0,0,1,1.22,2.41c0,1.34-.7,2.47-1.53,2.47a1.63,1.63,0,0,1-1.32-1.27Q462,276.25,462.13,274.82Zm-44.22-25.39,14.23,12.18,14-12a27,27,0,0,1,12.76,22.94c0,15.18-14.06,37.57-26.69,37.57-6.09,0-12.86-4.72-18.58-13-5.41-7.78-8.77-17.21-8.77-24.6A27,27,0,0,1,417.91,249.43Z" transform="translate(-374 -213.56)"/><path class="cls-2" d="M478.39,319s0,0.09,0,.14c0,2.7-.89,4.89-2,4.89a1.34,1.34,0,0,1-1-.73c-0.36,1.24-.95,2.06-1.61,2.06s-1.25-.82-1.61-2.06a1.09,1.09,0,0,1-2.07,0c-0.36,1.24-.95,2.06-1.61,2.06-1.1,0-2-2.19-2-4.89a11.45,11.45,0,0,1,.1-1.46H396.5s0,0.09,0,.14c0,2.7-.89,4.89-2,4.89a1.34,1.34,0,0,1-1-.73c-0.36,1.24-.95,2.06-1.61,2.06s-1.25-.82-1.61-2.06a1.09,1.09,0,0,1-2.07,0c-0.36,1.24-1.29,2.15-2.14,2.11s-1.26-1.28-1.61-4.12a8.84,8.84,0,0,1,.25-2.28H374v28H489V319H478.39Zm-70.78,21.85a7.5,7.5,0,0,1-4.59-1.61,0.2,0.2,0,0,1,0-.29l0.49-.61a0.18,0.18,0,0,1,.29,0,6.71,6.71,0,0,0,4,1.43c2.22,0,3.59-1.12,3.59-2.84,0-1.37-.77-2.37-3.33-2.69l-0.63-.08c-2.71-.35-4-1.65-4-3.67,0-2.41,1.71-3.9,4.37-3.9a7,7,0,0,1,4,1.16,0.18,0.18,0,0,1,0,.28l-0.41.63a0.2,0.2,0,0,1-.28,0,6.29,6.29,0,0,0-3.37-1c-2,0-3.14,1.1-3.14,2.71,0,1.41.9,2.33,3.26,2.63l0.63,0.08c2.82,0.37,4.06,1.67,4.06,3.73C412.51,339.18,410.83,340.85,407.61,340.85Zm16.93-3.12a4.77,4.77,0,0,1-9,0,20,20,0,0,1,0-8,4.77,4.77,0,0,1,9,0A20,20,0,0,1,424.54,337.73ZM437.35,341h-0.94a1.19,1.19,0,0,1-.24-0.58L433.25,334h-3.77a1.63,1.63,0,0,0-.48.57v5.88a1.25,1.25,0,0,1,.15.55H428.4a0.94,0.94,0,0,1-.4-0.55V327c0-.12.28,0,0.4,0h4.65c2.61,0,4.22,1.36,4.22,3.72a3.47,3.47,0,0,1-2.84,3.62l3,6.29C437.54,340.75,437.48,341,437.35,341Zm12.55,0H449a1.21,1.21,0,0,1-.24-0.58L445.8,334H442a1.29,1.29,0,0,0,0,.57v5.88a0.83,0.83,0,0,1-.3.55h-0.76a0.94,0.94,0,0,1,.06-0.55V327h4.6c2.61,0,4.22,1.36,4.22,3.72a3.47,3.47,0,0,1-2.83,3.62l3,6.29C450.08,340.75,450,341,449.9,341Zm7.1-6v5.49a0.83,0.83,0,0,1-.31.55h-0.76a1,1,0,0,1,.06-0.55V335l-4.29-7.85c0-.1-0.11-0.11,0-0.11h0.79a0.37,0.37,0,0,1,.31.29l3.49,6.71h0.06l3.43-6.71a0.37,0.37,0,0,1,.31-0.29h0.78c0.16,0,.26,0,0.21.11Z" transform="translate(-374 -213.56)"/><path class="cls-2" d="M436.11,330.5c0-1.73-1.1-2.5-3.08-2.5h-3.55a0.94,0.94,0,0,0-.48,0v5.22a2.31,2.31,0,0,0,.48-0.22H433C435,333,436.11,332.25,436.11,330.5Z" transform="translate(-374 -213.56)"/><line class="cls-1" y1="133.44" x2="115" y2="133.44"/></svg>